<svg xmlns="http://www.w3.org/2000/svg" width="194.03" height="83.514" viewBox="62.653 2.162 194.03 83.514" class=""><path fill="#FFF" d="M168.491,30.794c-0.793-0.79-1.972-0.956-2.927-0.498l-2.742-2.73c0.708-1.133,0.704-2.582-0.008-3.711 l2.727-2.738c0.973,0.511,2.205,0.356,3.021-0.463c1.002-1.008,0.999-2.637-0.008-3.641c-1.008-1.003-2.638-1-3.641,0.008 c-0.833,0.836-0.971,2.102-0.418,3.082l-2.696,2.708c-1.146-0.768-2.644-0.785-3.805-0.053l-2.702-2.692 c0.453-0.957,0.283-2.136-0.51-2.925c-1.008-1.004-2.637-1-3.641,0.007c-1.003,1.007-1,2.637,0.008,3.64 c0.833,0.83,2.094,0.97,3.071,0.423l2.668,2.657c-0.727,1.164-0.703,2.661,0.069,3.803l-2.691,2.703 c-0.982-0.55-2.248-0.406-3.081,0.43c-1.003,1.007-1,2.637,0.007,3.64c1.008,1.003,2.637,1,3.641-0.007 c0.816-0.82,0.967-2.051,0.451-3.023l2.721-2.731c1.133,0.708,2.581,0.705,3.711-0.007l2.707,2.696 c-0.544,0.981-0.398,2.24,0.436,3.07c1.007,1.003,2.637,1,3.64-0.007S169.498,31.797,168.491,30.794z"></path><g fill="#A78335"><path d="M141.812 30.621l-.171-.642-4.852 1.296.172.642c.537 2.008 1.334 3.931 2.371 5.716l.332.573 4.344-2.517-.333-.574C142.856 33.705 142.229 32.193 141.812 30.621zM149.145 41.076l-.543-.383-2.888 4.106.542.382c1.688 1.188 3.533 2.152 5.485 2.866l.625.229 1.714-4.724-.624-.226C151.935 42.776 150.483 42.018 149.145 41.076zM147.846 11.487c1.245-1.051 2.625-1.934 4.102-2.624l.601-.282-2.127-4.548-.601.281c-1.863.87-3.616 1.992-5.209 3.333l-.508.428 3.234 3.84L147.846 11.487zM141.46 22.541c.282-1.614.772-3.176 1.457-4.642l.28-.602-4.547-2.124-.281.602c-.876 1.875-1.5 3.861-1.855 5.904l-.113.653 4.945.861L141.46 22.541zM176.023 35.1c-.808 1.398-1.808 2.699-2.972 3.866l-.47.47 3.557 3.544.469-.469c1.47-1.472 2.734-3.121 3.762-4.898l.332-.575-4.346-2.512L176.023 35.1zM183.167 21.654l-.115-.652-4.943.863.114.653c.188 1.078.282 2.176.282 3.264 0 .559-.022 1.102-.066 1.615l-.058.662 5.004.424.057-.66c.057-.655.085-1.342.085-2.041C183.526 24.395 183.404 23.007 183.167 21.654zM175.129 15.067l.383.544 4.104-2.891-.382-.542c-.781-1.112-1.672-2.169-2.645-3.14-.495-.496-1.011-.969-1.535-1.407l-.508-.425-3.227 3.843.51.426c.417.35.824.723 1.209 1.112C173.814 13.361 174.518 14.196 175.129 15.067zM166.252 43.32c-1.523.553-3.125.907-4.757 1.053l-.659.059.434 5.001.662-.058c2.071-.181 4.102-.63 6.035-1.335l.623-.228-1.714-4.72L166.252 43.32zM165.309 7.916l1.295-4.82-.643-.171c-1.905-.506-3.963-.763-6.127-.763h-.666l.015 4.99h.661c1.719 0 3.342.2 4.825.594L165.309 7.916z"></path></g><g><path fill="#FFF" d="M78.01 82.93c-1.842 1.842-4.03 2.641-6.393 2.641-4.899 0-8.964-3.162-8.964-8.895s3.996-8.895 8.964-8.895c2.327 0 4.412.799 6.219 2.571l-1.807 1.876c-1.216-1.182-2.814-1.736-4.343-1.736-3.405 0-6.15 2.327-6.15 6.184 0 3.996 2.78 6.185 6.115 6.185 1.633 0 3.267-.556 4.482-1.807l1.911 1.911L78.01 82.93zM95.384 85.328l-.069-3.127c-1.355 2.362-3.961 3.475-6.323 3.475-4.934 0-8.791-3.405-8.791-8.999 0-5.559 3.927-8.895 8.825-8.859 2.571 0 5.107 1.182 6.358 3.404l.035-3.127h2.779v17.164h-2.745L95.384 85.328zM89.13 70.527c-3.405 0-6.149 2.433-6.149 6.254s2.744 6.288 6.149 6.288c8.27 0 8.27-12.576.035-12.576L89.13 70.527zM114.426 71.917c-1.494-1.355-3.058-1.668-4.83-1.668-2.362-.035-4.273.799-4.238 2.502.034 1.771 2.119 2.293 4.273 2.536 3.127.382 7.296 1.008 7.227 5.247-.069 3.439-3.335 5.142-7.192 5.142-2.884 0-5.732-.8-7.678-3.231l1.633-1.98c1.528 1.877 3.995 2.641 6.115 2.641 1.876 0 4.273-.59 4.343-2.676.034-1.875-1.98-2.432-4.621-2.744-3.301-.417-6.845-1.285-6.845-4.934-.035-3.648 3.648-5.072 6.949-5.038 2.57 0 4.69.626 6.531 2.293l-1.633 1.876L114.426 71.917zM124.087 62.884c0 2.467-3.753 2.467-3.753-.035C120.334 60.382 124.087 60.382 124.087 62.884zM120.751 85.259h2.85V68.025h-2.85V85.259zM128.812 68.06h2.606l.139 2.745c1.494-2.051 3.579-2.988 5.872-2.988 4.343 0 7.539 2.918 7.539 7.956v9.485h-2.849v-9.45c0-3.301-1.946-5.351-5.212-5.351-3.127.035-5.281 2.502-5.281 5.594v9.207h-2.814V68.094 68.06zM157.722 67.713c5.246 0 8.929 3.683 8.929 8.999 0 5.211-3.752 8.859-8.929 8.859-5.143 0-8.895-3.648-8.895-8.859C148.827 71.395 152.614 67.713 157.722 67.713zM157.756 70.319c-3.509 0-6.08 2.57-6.08 6.393 0 3.613 2.536 6.184 6.046 6.184 3.544 0 6.08-2.57 6.115-6.184C163.837 72.889 161.196 70.319 157.756 70.319z"></path><path fill="#A78335" d="M174.365 78.309c.244 1.668 1.842 3.023 4.656 3.023 1.354 0 3.231-.313 4.447-1.355l2.814 3.127c-1.842 1.807-4.795 2.537-7.366 2.537-6.219 0-9.624-3.648-9.624-9.139 0-5.211 3.509-8.859 9.104-8.859 5.837 0 9.658 3.648 8.581 10.666H174.365zM182.496 74.661c-.104-1.875-2.016-2.744-4.1-2.744-2.016 0-3.544 1.043-4.031 2.744H182.496zM200.148 68.13h5.977v.174l-5.455 8.338 5.768 8.514v.104h-5.977l-3.161-5.143-3.127 5.143h-6.011v-.104l5.802-8.514-5.489-8.338V68.13h5.976l2.85 5.107L200.148 68.13zM215.646 63.405v4.794h4.343v4.169h-4.378v6.463c0 1.807 1.008 2.293 1.945 2.293.591 0 1.529-.139 2.085-.416l1.146 4.168c-1.251.486-2.258.695-3.613.766-3.718.173-6.532-1.46-6.532-6.811v-6.463h-3.058v-4.169h3.058V63.96L215.646 63.405zM228.052 68.13l.382 1.876c1.146-1.599 2.676-2.293 4.586-2.293 1.634 0 2.988.486 4.204 1.563l-2.084 3.961c-.834-.591-1.703-.869-2.745-.869-2.154 0-3.995 1.391-3.995 3.961v8.93h-5.004V68.13H228.052zM251.992 68.094h4.69c0 5.698 0 11.466 0 17.164h-4.517l-.278-2.154c-1.146 1.807-3.613 2.502-5.281 2.537-5.142.034-8.859-3.301-8.859-8.965 0-5.697 3.926-9.033 8.999-8.964 2.154 0 4.169.834 5.072 2.362L251.992 68.094zM242.75 76.677c0 2.85 2.016 4.518 4.517 4.518 2.814 0 4.552-2.189 4.552-4.344 0-2.467-1.563-4.725-4.552-4.725C244.766 72.126 242.75 73.828 242.75 76.677z"></path></g></svg>