<svg xmlns="http://www.w3.org/2000/svg" xmlns:xlink="http://www.w3.org/1999/xlink" width="73.633" height="57.405" viewBox="0 0 73.633 57.405">
  <defs>
    <clipPath id="clip-path">
      <rect width="73.633" height="57.405" fill="none"/>
    </clipPath>
  </defs>
  <g id="L8_Sigle" clip-path="url(#clip-path)">
    <g id="Group_3504" data-name="Group 3504" transform="translate(0 0.044)">
      <g id="Group_3503" data-name="Group 3503" transform="translate(0 0)">
        <g id="Group_3502" data-name="Group 3502">
          <path id="Path_1164" data-name="Path 1164" d="M50.85,203.115V157.9H33.1v57.361H74.059V203.115Z" transform="translate(-33.1 -157.9)" fill="#fff"/>
        </g>
      </g>
      <rect id="Rectangle_715" data-name="Rectangle 715" width="11.621" height="5.007" transform="translate(39.328 52.346)" fill="#fff"/>
    </g>
    <path id="Path_1165" data-name="Path 1165" d="M69.715,515.206V493.136s-.638-3.836,6.073-3.836c5.863,0,5.758,2.77,5.758,4.474v15.885l.21.533.323.21.565.105h29.5v6.654H71.637C71.637,517.177,69.715,517.443,69.715,515.206Z" transform="translate(-66.742 -462.493)" fill="#ebebe9"/>
    <g id="Group_3508" data-name="Group 3508" transform="translate(27.279 0)">
      <g id="Group_3505" data-name="Group 3505">
        <path id="Path_1166" data-name="Path 1166" d="M416.339,191.261a18.2,18.2,0,0,1-.872,13.551,15.806,15.806,0,0,1-4.958,5.524,22.58,22.58,0,0,1-7.333,3.254,38.03,38.03,0,0,1-8.907,1.147,40.306,40.306,0,0,1-7.139-.493,28.153,28.153,0,0,1-6.089-1.688,19.23,19.23,0,0,1-4.878-2.891,14.974,14.974,0,0,1-3.464-4.038,14.316,14.316,0,0,1-1.8-7.187,13.07,13.07,0,0,1,.783-4.837,11.277,11.277,0,0,1,2.2-3.537,13.8,13.8,0,0,1,3.182-2.56,31.211,31.211,0,0,1,3.779-1.906l.283-.161-.242-.2a16.153,16.153,0,0,1-6.081-13.123,12.517,12.517,0,0,1,1.341-5.839,13.828,13.828,0,0,1,3.868-4.635,19.142,19.142,0,0,1,6.016-3.093,26.632,26.632,0,0,1,7.785-1.2,30.648,30.648,0,0,1,7.381.743,20.306,20.306,0,0,1,6.073,2.4,12.611,12.611,0,0,1,4.119,3.973,10.039,10.039,0,0,1,1.534,5.443,14.075,14.075,0,0,1-.468,3.9,11.344,11.344,0,0,1-1.341,3.02,10.349,10.349,0,0,1-2.043,2.318,16.218,16.218,0,0,1-2.584,1.8l-.323.17.323.153a37.662,37.662,0,0,1,4.07,2.536,17.014,17.014,0,0,1,3.416,3.214A14.707,14.707,0,0,1,416.339,191.261Zm-15.667,9.4a3.279,3.279,0,0,0,.525-1.874,4.561,4.561,0,0,0-.63-2.3,7.058,7.058,0,0,0-1.712-1.882,14.251,14.251,0,0,0-2.528-1.518c-.961-.46-1.978-.88-3.044-1.268l-1.76-.7c-.428-.186-.767-.323-1.026-.428s-.42-.17-.5-.194l-.121-.04-.081.081a9.329,9.329,0,0,0-1.874,2.948,10.079,10.079,0,0,0-.63,3.82,5.9,5.9,0,0,0,.533,2.528,5.485,5.485,0,0,0,1.47,1.882,6.251,6.251,0,0,0,2.2,1.155,8.969,8.969,0,0,0,2.778.363,12.8,12.8,0,0,0,2.754-.331,7.652,7.652,0,0,0,2.2-.864,4.37,4.37,0,0,0,1.445-1.373M388.22,168.7a3.9,3.9,0,0,0-.509,2.092,4.524,4.524,0,0,0,.493,2.1,5.634,5.634,0,0,0,1.631,1.8,15.277,15.277,0,0,0,3.012,1.72c1.236.557,2.77,1.163,4.587,1.817l.121.04.081-.081a7.943,7.943,0,0,0,2.4-5.96,5.844,5.844,0,0,0-1.607-4.409,6.111,6.111,0,0,0-4.466-1.446,12.365,12.365,0,0,0-2.334.242,6.331,6.331,0,0,0-2.011.743,3.6,3.6,0,0,0-1.4,1.341" transform="translate(-370.898 -157.348)" fill="#ff102d"/>
      </g>
      <g id="Group_3507" data-name="Group 3507" transform="translate(2.016 33.363)" opacity="0.19">
        <g id="Group_3506" data-name="Group 3506">
          <path id="Path_1167" data-name="Path 1167" d="M436.734,583.586a13.772,13.772,0,0,0,1.462-6.824q-.012-.7-.073-1.357a3.436,3.436,0,0,0-.477-1.454l-.606-.985c-1.292-2.083-3.246-3.036-6.372-2.148a2.265,2.265,0,0,0-.25.089c-.864.363-5.9,2.584-4.8,4.232a6.5,6.5,0,0,1,1.018,3.5,5.559,5.559,0,0,1-.9,3.2,6.837,6.837,0,0,1-2.213,2.108,10.122,10.122,0,0,1-2.907,1.147,15.274,15.274,0,0,1-3.295.388,11.917,11.917,0,0,1-3.545-.46,8.934,8.934,0,0,1-3.053-1.583,7.855,7.855,0,0,1-2.148-2.681,8.155,8.155,0,0,1-.808-3.529,15.852,15.852,0,0,1,.065-1.655,2.727,2.727,0,0,0-.113-1.082l-.468-1.389a1.58,1.58,0,0,0-2.035-1c-.969.25-6.186,1.106-7.22,1.865a5.02,5.02,0,0,0-2.108,3.311c-.016.331-.024.678-.016,1.034a11.957,11.957,0,0,0,1.567,6.033,12.879,12.879,0,0,0,3,3.408,17.272,17.272,0,0,0,4.385,2.536,27.092,27.092,0,0,0,5.693,1.551,39.217,39.217,0,0,0,6.832.468,37.036,37.036,0,0,0,8.487-1.082,20.794,20.794,0,0,0,6.662-2.915A13.368,13.368,0,0,0,436.734,583.586Z" transform="translate(-395.861 -570.487)" fill="#9e2518"/>
        </g>
      </g>
      <path id="Path_1168" data-name="Path 1168" d="M795.99,165.685a.814.814,0,0,0,.694-.694l.283-4.555c.032-.347.089-.347.121,0l.283,4.555a.814.814,0,0,0,.694.694l4.555.283c.347.032.347.089,0,.121l-4.555.283a.813.813,0,0,0-.694.694l-.283,4.555c-.032.347-.089.347-.121,0l-.283-4.555a.814.814,0,0,0-.694-.694l-4.555-.283c-.347-.032-.347-.089,0-.121Z" transform="translate(-757.235 -159.947)" fill="#fff"/>
    </g>
    <path id="Path_1169" data-name="Path 1169" d="M130.244,193.549a.443.443,0,0,1-.444-.444l-.048-9.416h-6.808a.444.444,0,1,1,0-.888H130.2a.443.443,0,0,1,.444.444l.057,9.86a.455.455,0,0,1-.452.444Z" transform="translate(-115.28 -180.745)" fill="#d3d1d1"/>
    <path id="Path_1170" data-name="Path 1170" d="M213.344,349.687a.448.448,0,0,1-.444-.444v-1.6a.444.444,0,1,1,.888,0v1.6A.443.443,0,0,1,213.344,349.687Z" transform="translate(-198.38 -331.868)" fill="#d3d1d1"/>
  </g>
</svg>
