<svg xmlns="http://www.w3.org/2000/svg" xmlns:xlink="http://www.w3.org/1999/xlink" width="767.3579" height="218.0503" viewBox="0 0 767.3579 218.0503"><defs><linearGradient id="Dégradé_sans_nom_2" x1="314.3549" y1="170.025" x2="314.3549" y2="19.003" gradientUnits="userSpaceOnUse"><stop offset="0.05" stop-color="#fff" stop-opacity="0"/><stop offset="0.6704" stop-color="#fff" stop-opacity="0.8"/><stop offset="1" stop-color="#fff" stop-opacity="0"/></linearGradient><linearGradient id="linear-gradient" x1="667.6756" y1="165.1945" x2="667.6756" y2="185.2755" gradientUnits="userSpaceOnUse"><stop offset="0.6361" stop-color="#a6a8ab"/><stop offset="0.8366" stop-color="#d0d2d3"/><stop offset="0.8524" stop-color="#bfc1c3"/><stop offset="0.8776" stop-color="#abadaf"/><stop offset="0.9062" stop-color="#9d9fa1"/><stop offset="0.9411" stop-color="#959799"/><stop offset="1" stop-color="#929497"/></linearGradient><linearGradient id="linear-gradient-2" x1="683.9202" y1="161.3042" x2="684.149" y2="161.3042" gradientUnits="userSpaceOnUse"><stop offset="0" stop-color="#850817"/><stop offset="1" stop-color="#990a1b"/></linearGradient><linearGradient id="Dégradé_sans_nom_18" x1="194.0114" y1="19.9252" x2="194.0114" y2="48.8401" gradientUnits="userSpaceOnUse"><stop offset="0" stop-color="#b3b3b3" stop-opacity="0"/><stop offset="0.2341" stop-color="#b3b3b3" stop-opacity="0.2"/><stop offset="0.2527" stop-color="#b3b3b3" stop-opacity="0.2282"/><stop offset="0.4039" stop-color="#b3b3b3" stop-opacity="0.4329"/><stop offset="0.5556" stop-color="#b3b3b3" stop-opacity="0.5936"/><stop offset="0.7061" stop-color="#b3b3b3" stop-opacity="0.7082"/><stop offset="0.8549" stop-color="#b3b3b3" stop-opacity="0.777"/><stop offset="1" stop-color="#b3b3b3" stop-opacity="0.8"/></linearGradient><linearGradient id="Dégradé_sans_nom_18-2" x1="405.5282" y1="19.9249" x2="405.5282" y2="48.8304" xlink:href="#Dégradé_sans_nom_18"/><linearGradient id="Dégradé_sans_nom_18-3" x1="452.4738" y1="19.9249" x2="452.4738" y2="48.8304" xlink:href="#Dégradé_sans_nom_18"/><linearGradient id="Dégradé_sans_nom_18-4" x1="54.6893" y1="195.8735" x2="54.6893" y2="148.3804" xlink:href="#Dégradé_sans_nom_18"/><linearGradient id="Dégradé_sans_nom_18-5" x1="314.5549" y1="195.8726" x2="314.5549" y2="148.3651" xlink:href="#Dégradé_sans_nom_18"/><linearGradient id="Dégradé_sans_nom_18-6" x1="560.6597" y1="195.8735" x2="560.6597" y2="148.3804" xlink:href="#Dégradé_sans_nom_18"/><linearGradient id="Dégradé_sans_nom_14" x1="10.4509" y1="218.6043" x2="10.4509" y2="-0.5543" gradientUnits="userSpaceOnUse"><stop offset="0.05" stop-color="#fff" stop-opacity="0"/><stop offset="0.4665" stop-color="#fff"/><stop offset="0.95" stop-color="#fff" stop-opacity="0"/></linearGradient><linearGradient id="Dégradé_sans_nom_14-2" x1="133.4622" y1="218.0503" x2="133.4622" y2="0" xlink:href="#Dégradé_sans_nom_14"/><linearGradient id="Dégradé_sans_nom_14-3" x1="254.0596" y1="217.8876" x2="254.0596" y2="0.1631" xlink:href="#Dégradé_sans_nom_14"/><linearGradient id="Dégradé_sans_nom_14-4" x1="374.6504" y1="217.8876" x2="374.6504" y2="0.1631" xlink:href="#Dégradé_sans_nom_14"/><linearGradient id="Dégradé_sans_nom_14-5" x1="495.2478" y1="218.0503" x2="495.2478" y2="0" xlink:href="#Dégradé_sans_nom_14"/><linearGradient id="Dégradé_sans_nom_14-6" x1="618.2591" y1="218.6043" x2="618.2591" y2="-0.5543" xlink:href="#Dégradé_sans_nom_14"/></defs><title>Logo_L8</title><g id="Calque_2" data-name="Calque 2"><g id="Calque_1-2" data-name="Calque 1"><path d="M20.6259.246a390.4674,390.4674,0,0,0,0,217.558H608.0841a390.4692,390.4692,0,0,0,0-217.558Z" opacity="0.22" fill="url(#Dégradé_sans_nom_2)"/><path d="M754.4965,116.5586a37.2352,37.2352,0,0,1,2.0882,12.7428q.0679,10.5566-4.0814,18.21a36.1458,36.1458,0,0,1-11.3263,12.62,51.8911,51.8911,0,0,1-16.7481,7.4406,87.0561,87.0561,0,0,1-20.3361,2.6233,90.8974,90.8974,0,0,1-16.3021-1.1309,63.7969,63.7969,0,0,1-13.9048-3.8528,43.8831,43.8831,0,0,1-11.1349-6.5938,34.1441,34.1441,0,0,1-7.9095-9.222,32.7381,32.7381,0,0,1-4.1177-16.4143,29.5106,29.5106,0,0,1,1.7949-11.0524,25.79,25.79,0,0,1,5.0218-8.0869,32.09,32.09,0,0,1,7.2636-5.85,71.7937,71.7937,0,0,1,8.6383-4.3456l.6393-.3764-.551-.4529q-13.772-11.1782-13.8864-29.9728a28.5586,28.5586,0,0,1,3.0629-13.3319,31.6567,31.6567,0,0,1,8.8316-10.5944A43.6956,43.6956,0,0,1,685.28,41.8557a61.1228,61.1228,0,0,1,17.782-2.7369,69.7763,69.7763,0,0,1,16.8531,1.69,46.1726,46.1726,0,0,1,13.869,5.4738,28.8813,28.8813,0,0,1,9.4126,9.069,22.8377,22.8377,0,0,1,3.498,12.4373,31.9153,31.9153,0,0,1-1.074,8.9124,25.43,25.43,0,0,1-3.07,6.8968,24.0391,24.0391,0,0,1-4.6671,5.3011,38.1967,38.1967,0,0,1-5.8984,4.1137l-.7322.39.737.355a85.8488,85.8488,0,0,1,9.2984,5.7822,39.4035,39.4035,0,0,1,7.8035,7.3311A33.9874,33.9874,0,0,1,754.4965,116.5586Zm-35.7861,21.47a7.4963,7.4963,0,0,0,1.2083-4.277,10.1673,10.1673,0,0,0-1.445-5.2536,15.6926,15.6926,0,0,0-3.9118-4.2924,32.119,32.119,0,0,0-5.7727-3.4709q-3.2991-1.5632-6.9587-2.8966l-4.0224-1.6055c-.9829-.4224-1.7545-.7416-2.3394-.9808-.573-.24-.9587-.3869-1.1343-.4438l-.28-.09-.1854.1922a21.3891,21.3891,0,0,0-4.2838,6.7263,23.16,23.16,0,0,0-1.4486,8.7289,13.4648,13.4648,0,0,0,1.2155,5.7655,12.4486,12.4486,0,0,0,3.3633,4.3009,14.573,14.573,0,0,0,5.0326,2.6429,20.2936,20.2936,0,0,0,6.3505.8357,29.5151,29.5151,0,0,0,6.2936-.7486,17.1132,17.1132,0,0,0,5.0143-1.97,10.2484,10.2484,0,0,0,3.3044-3.1627M690.27,65.0113a8.8957,8.8957,0,0,0-1.1589,4.7851,10.2344,10.2344,0,0,0,1.127,4.7971,12.7318,12.7318,0,0,0,3.7239,4.106,35.2938,35.2938,0,0,0,6.8723,3.9268q4.2459,1.9209,10.4775,4.1428l.2689.0908.1855-.1922a18.16,18.16,0,0,0,5.4759-13.6062q-.0429-6.6532-3.6694-10.08-3.6261-3.4044-10.1918-3.3078a30.6149,30.6149,0,0,0-5.3386.5444,14.1384,14.1384,0,0,0-4.5966,1.6919,8.9785,8.9785,0,0,0-3.1757,3.1018" fill="#850817"/><path d="M706.288,167.4039v5.1444a4.7459,4.7459,0,0,1-4.741,4.74H623.3259l-1.6281,7.3654h82.1658a9.8006,9.8006,0,0,0,9.79-9.7892v-7.4611Z" fill="url(#linear-gradient)"/><path d="M711.3457,168.1987a35.0441,35.0441,0,0,1,.725,6.9535,7.6842,7.6842,0,0,1-7.8636,7.3357c-5.894.0148-28.5129-.259-28.5052-.5786.0059-.3208,22.632-.5589,28.5254-.5726,6.1636-.0119,6.6636-6.125,6.6315-6.1845C711.1052,170.8129,711.3457,168.1987,711.3457,168.1987Z" fill="#fff" opacity="0.88"/><path d="M683.92,161.2633c.0769.0267.1517.0554.2288.0819C684.0719,161.3187,683.9971,161.29,683.92,161.2633Z" fill="url(#linear-gradient-2)"/><path d="M765.2686,110.8135a37.2376,37.2376,0,0,1,2.0882,12.7428q.0679,10.5565-4.0814,18.21a36.1458,36.1458,0,0,1-11.3263,12.62,51.891,51.891,0,0,1-16.7481,7.44,87.0508,87.0508,0,0,1-20.3361,2.6234,90.8967,90.8967,0,0,1-16.3021-1.1309,63.7969,63.7969,0,0,1-13.9048-3.8528,43.8828,43.8828,0,0,1-11.135-6.5939,34.1424,34.1424,0,0,1-7.9094-9.222,32.7378,32.7378,0,0,1-4.1177-16.4143,29.5093,29.5093,0,0,1,1.7949-11.0524,25.7892,25.7892,0,0,1,5.0218-8.0868,32.09,32.09,0,0,1,7.2636-5.85,71.7937,71.7937,0,0,1,8.6383-4.3456l.6393-.3764-.551-.4529Q670.5307,85.8943,670.4163,67.1a28.56,28.56,0,0,1,3.063-13.3319,31.6566,31.6566,0,0,1,8.8315-10.5944,43.6973,43.6973,0,0,1,13.7409-7.0627,61.1261,61.1261,0,0,1,17.782-2.737,69.7812,69.7812,0,0,1,16.8531,1.69,46.1726,46.1726,0,0,1,13.869,5.4738,28.8822,28.8822,0,0,1,9.4126,9.069,22.8377,22.8377,0,0,1,3.498,12.4372,31.9144,31.9144,0,0,1-1.074,8.9124,25.4292,25.4292,0,0,1-3.07,6.8969,24.0414,24.0414,0,0,1-4.6671,5.3011,38.1967,38.1967,0,0,1-5.8984,4.1137l-.7322.39.737.355a85.8652,85.8652,0,0,1,9.2984,5.7823,39.4035,39.4035,0,0,1,7.8035,7.3311A33.986,33.986,0,0,1,765.2686,110.8135Zm-35.7861,21.47a7.4963,7.4963,0,0,0,1.2083-4.277,10.1674,10.1674,0,0,0-1.4451-5.2536,15.6894,15.6894,0,0,0-3.9118-4.2924,32.1087,32.1087,0,0,0-5.7726-3.4709q-3.2991-1.5631-6.9587-2.8966l-4.0224-1.6055c-.9829-.4224-1.7545-.7416-2.3394-.9809-.573-.2394-.9587-.3868-1.1343-.4438l-.28-.09-.1854.1922a21.3891,21.3891,0,0,0-4.2838,6.7263,23.1582,23.1582,0,0,0-1.4486,8.7289,13.4639,13.4639,0,0,0,1.2155,5.7655,12.4486,12.4486,0,0,0,3.3633,4.3009A14.5747,14.5747,0,0,0,708.52,137.33a20.2936,20.2936,0,0,0,6.3505.8357,29.5151,29.5151,0,0,0,6.2936-.7486,17.1132,17.1132,0,0,0,5.0143-1.97,10.2484,10.2484,0,0,0,3.3044-3.1627M701.0419,59.2661a8.8952,8.8952,0,0,0-1.1589,4.7852,10.2347,10.2347,0,0,0,1.127,4.7971,12.7318,12.7318,0,0,0,3.7239,4.106,35.2888,35.2888,0,0,0,6.8723,3.9267q4.2459,1.921,10.4775,4.1429l.2689.0907.1854-.1922a18.1592,18.1592,0,0,0,5.476-13.6061q-.0429-6.6533-3.6694-10.08-3.6261-3.4044-10.1918-3.3078a30.6139,30.6139,0,0,0-5.3386.5444,14.1376,14.1376,0,0,0-4.5966,1.6919,8.9782,8.9782,0,0,0-3.1757,3.1017" fill="#ff102d"/><g opacity="0.32"><path d="M759.4441,140.4475c2.3069-4.2653,3.4282-9.5087,3.3338-15.5857q-.0248-1.592-.1662-3.1015a7.6529,7.6529,0,0,0-1.0936-3.32l-1.389-2.2477c-2.9426-4.7616-7.4225-6.9309-14.5472-4.9086a4.9364,4.9364,0,0,0-.5738.2022c-1.9675.8313-13.4644,5.8936-10.9745,9.6673a14.7311,14.7311,0,0,1,2.3236,8.0125,12.7741,12.7741,0,0,1-2.06,7.3123,15.6522,15.6522,0,0,1-5.0468,4.8165,22.7585,22.7585,0,0,1-6.6391,2.6218,35.395,35.395,0,0,1-7.5326.8909,26.6619,26.6619,0,0,1-8.0913-1.0547,20.3681,20.3681,0,0,1-6.9674-3.6174,17.9776,17.9776,0,0,1-4.91-6.1248,18.7932,18.7932,0,0,1-1.8462-8.0686,34.0539,34.0539,0,0,1,.1444-3.7742,5.9534,5.9534,0,0,0-.26-2.477l-1.07-3.1789a3.61,3.61,0,0,0-4.6511-2.2891c-2.2035.5685-14.1379,2.5313-16.4982,4.2564s-4.6616,4.7924-4.8128,7.557q-.0625,1.1425-.0435,2.3687a27.1368,27.1368,0,0,0,3.5821,13.77,29.4889,29.4889,0,0,0,6.8568,7.7853,39.71,39.71,0,0,0,10.0124,5.7955,60.9826,60.9826,0,0,0,12.9992,3.5358,88.6238,88.6238,0,0,0,15.6109,1.0625,84.0937,84.0937,0,0,0,19.3876-2.4731,47.3881,47.3881,0,0,0,15.22-6.6665A30.243,30.243,0,0,0,759.4441,140.4475Z" fill="#9e2518"/></g><path d="M747.0666,43.4885a1.8386,1.8386,0,0,0,1.5791-1.5792l.6422-10.3979c.078-.79.2053-.79.2833,0l.6422,10.3979a1.8386,1.8386,0,0,0,1.5791,1.5792l10.398.6422c.79.078.79.2053,0,.2833l-10.398.6421a1.8386,1.8386,0,0,0-1.5791,1.5792l-.6422,10.3979c-.078.7906-.2053.7906-.2833,0l-.6422-10.3979a1.8385,1.8385,0,0,0-1.5791-1.5792l-10.398-.6421c-.79-.078-.79-.2053,0-.2833Z" fill="#fff"/><path d="M160.6134,47.2678c6.82,6.3586,17.2485,9.5987,30.7771,9.5969,13.94.0016,24.8091-3.2973,32.2777-9.7769,7.5124-6.5038,11.5561-15.8831,12.2841-27.7626q.006-.101.0126-.202H208.6572c-.6114,5.7425-2.1041,9.9761-4.5127,12.5679-2.5139,2.7076-6.2329,4.0259-11.3686,4.0258-5.2419,0-8.7716-1.3644-10.7447-4.1709-1.9116-2.7043-2.6564-6.9015-2.2058-12.4228H152.5035l-.0337.2634C150.925,31.4484,153.7425,40.8683,160.6134,47.2678Z" opacity="0.25" fill="url(#Dégradé_sans_nom_18)"/><path d="M420.3416,54.8979q-.8742-17.9959-2.3324-35.7747H390.7148q1.0746,17.7588,1.718,35.7747Z" opacity="0.25" fill="url(#Dégradé_sans_nom_18-2)"/><path d="M483.0925,54.8979c-9.55-11.9973-19.2671-23.9355-29.01-35.7747H421.8552c9.1734,11.8392,18.3749,23.7773,27.4661,35.7747Z" opacity="0.25" fill="url(#Dégradé_sans_nom_18-3)"/><path d="M37.8172,160.1221q2.33,19.5258,6.45,38.8046H71.5613q-3.7029-19.2535-5.7977-38.8046Zm29.6595,28.4153a1.1886,1.1886,0,0,1-1.2246,1.4273,1.7962,1.7962,0,0,1-1.7191-1.4273q-.1753-1.0134-.3454-2.0273a1.1976,1.1976,0,0,1,1.2375-1.4295,1.78,1.78,0,0,1,1.71,1.4295Q67.304,187.5241,67.4767,188.5374Zm-2.3286-5.1683a1.7713,1.7713,0,0,1-1.7053-1.4312q-1.3194-8.3631-2.3332-16.7746H48.644a1.711,1.711,0,0,1-1.6728-1.44,1.27,1.27,0,0,1,1.3181-1.44H62.2655a1.6919,1.6919,0,0,1,1.6589,1.44q1.0595,9.133,2.4751,18.2145A1.2129,1.2129,0,0,1,65.1481,183.3691Z" opacity="0.25" fill="url(#Dégradé_sans_nom_18-4)"/><path d="M308.2015,185.8356a21.5156,21.5156,0,0,1,7.7562-5.1958,26.3393,26.3393,0,0,1,17.0544-.18,38.048,38.048,0,0,1,7.1037,3.2934,52.2764,52.2764,0,0,1,5.7889,3.999q2.5779,2.0866,4.2719,3.5763l.45.3975h4.6989q.3672-12.42.6228-24.959-.4431-.2223-.8866-.4446c-1.6444-.8213-3.8-1.7936-6.4188-2.8954a66.3273,66.3273,0,0,0-7.4876-2.6732,74.0705,74.0705,0,0,0-9.156-1.8218,80.7771,80.7771,0,0,0-10.7717-.6512c-15.1286-.0031-27.3577,4.6753-36.12,13.85-6.7684,7.0818-10.7592,16.095-11.9459,26.7959h28.401a29.9882,29.9882,0,0,1,1.1333-3.9681A24.6166,24.6166,0,0,1,308.2015,185.8356Zm45.0836-.1553a1.4972,1.4972,0,0,1-1.51,1.4289,1.4106,1.4106,0,0,1-1.4389-1.4289q.0237-1.0147.0478-2.03a1.4955,1.4955,0,0,1,1.5108-1.4308,1.4126,1.4126,0,0,1,1.4424,1.4308Q353.3113,184.6659,353.2851,185.68Zm-14.5986-21.8626a1.5226,1.5226,0,0,1,1.8657-.9754,63.3857,63.3857,0,0,1,7.1686,2.5665c1.9948.8384,3.7211,1.6053,5.1357,2.2762a1.4029,1.4029,0,0,1,.8119,1.2929q-.1019,5.0562-.22,10.0959a1.4989,1.4989,0,0,1-1.5138,1.4324,1.4188,1.4188,0,0,1-1.4482-1.4324q.1-4.5887.1865-9.1916c-1.2048-.5552-2.6057-1.17-4.1805-1.8335a60.4377,60.4377,0,0,0-6.8162-2.4436A1.4157,1.4157,0,0,1,338.6865,163.8177Z" opacity="0.25" fill="url(#Dégradé_sans_nom_18-5)"/><path d="M578.9912,160.1221q-10.5977,16.0054-22.0275,31.8506c-4.112-10.5545-8.7185-21.18-13.7406-31.8506h-31.94c6.866,13.0172,13.1732,25.9689,18.7668,38.8046h49.6259c10.519-12.8357,20.69-25.7874,30.36-38.8046ZM545.454,174.25a1.6588,1.6588,0,0,1-.7411.18,1.2852,1.2852,0,0,1-1.2063-.74q-1.9-4.2579-3.8931-8.5262H528.773a1.3046,1.3046,0,0,1-1.348-1.44,1.655,1.655,0,0,1,1.6344-1.44h11.7355a1.3324,1.3324,0,0,1,1.2306.7427q2.1821,4.6427,4.2569,9.2723A1.5517,1.5517,0,0,1,545.454,174.25Zm2.7909,6.6042a1.652,1.652,0,0,1-.7355.1769,1.2533,1.2533,0,0,1-1.1916-.7432q-.4494-1.0562-.9034-2.1134a1.5679,1.5679,0,0,1,.85-1.947,1.3825,1.3825,0,0,1,1.9368.5672q.4566,1.0575.9072,2.1143A1.5708,1.5708,0,0,1,548.2449,180.854Zm43.3718-.0138q-.9972,1.2726-2,2.5431a1.815,1.815,0,0,1-1.3963.7013,1.33,1.33,0,0,1-.7157-.2,1.311,1.311,0,0,1-.1762-1.9611q.9965-1.2715,1.9881-2.5445a1.6559,1.6559,0,0,1,2.1123-.502A1.3091,1.3091,0,0,1,591.6167,180.84Zm3.5293-4.5012a1.795,1.795,0,0,1-1.3922.7045,1.35,1.35,0,0,1-.7206-.2,1.3169,1.3169,0,0,1-.2088-1.9651q3.7277-4.85,7.3723-9.7152h-9.1046a1.2611,1.2611,0,0,1-1.3056-1.44,1.7136,1.7136,0,0,1,1.6752-1.44h11.7355a1.2919,1.2919,0,0,1,1.2024.7266,1.4321,1.4321,0,0,1-.2062,1.4466Q599.7345,170.4081,595.146,176.339Z" opacity="0.25" fill="url(#Dégradé_sans_nom_18-6)"/><path d="M71.9209,44.0064q-1.7706-3.3946-3.4748-6.7816C65.4607,48.7517,61.72,80.3176,61.72,80.3176s-25.9164,33.8771-26.14,54.9533q2.46,3.2587,4.9615,6.5145H109.777q-.5963-10.6516-.8037-21.3329-2.33-3.263-4.6258-6.5274-18.3486,3.2637-36.6437,6.5274A487.485,487.485,0,0,1,71.9209,44.0064Z" fill="#131417" opacity="0.75"/><path d="M207.8987,147.8971c.2229,6.42-.78,11.0759-3.0329,13.8558-2.2134,2.7291-5.7946,4.0532-10.9759,4.0533-5.29-.0008-9.043-1.3708-11.4642-4.2-2.4965-2.91-3.95-7.52-4.2259-13.7095-.8893-20.0591-1.0885-40.2368-.5977-60.3489q-1.0455-3.5467-2.0582-7.0906-1.3361,15.3268-2.1332,30.6968c-8.0752,12.732-15.8611,25.4611-23.2107,38.1415.6854,12.26,5.2821,21.6935,13.2,28.08,7.8755,6.3435,18.6209,9.5439,31.95,9.5458,13.7334-.0023,24.0451-3.2605,30.8556-9.7254,6.8332-6.4927,10.1224-15.8881,9.8031-27.963-.5435-20.5789-.6684-41.2864-.3752-61.9245q-1.083-3.4272-2.1474-6.8514-1.4667,17.4817-2.5281,35.0149H207.2451Q207.3379,131.7078,207.8987,147.8971Z" fill="#131417" opacity="0.75"/><path d="M321.1665,41.8445c-14.9838.0022-27.1161,4.6349-36.2,13.8327-9.0422,9.1661-13.8219,21.6256-13.9119,37.05-.0969,15.99,4.5513,28.6214,13.6019,37.504,9.07,8.9,21.3467,13.4,36.5385,13.401a70.84,70.84,0,0,0,11.4339-.725,85.4066,85.4066,0,0,0,8.877-2.0787,61.5055,61.5055,0,0,0,7.5992-2.7268q3.6027-1.5612,6.3439-2.7813.4839-.214.9679-.4288.1129-12.477.1168-24.982h-4.5727c-.1587.1355-.3182.2716-.4769.4075-1.2353,1.0561-2.6853,2.2592-4.3635,3.6138a49.1789,49.1789,0,0,1-5.6987,3.908,36.5365,36.5365,0,0,1-7.1924,3.3183,27.38,27.38,0,0,1-17.7445-.0374,22.0576,22.0576,0,0,1-8.01-4.8166,25.4324,25.4324,0,0,1-6.0664-9.1769,38.1263,38.1263,0,0,1-2.333-14.3332,39.5925,39.5925,0,0,1,2.2936-14.0663,25.5334,25.5334,0,0,1,5.7176-9.2494,22.1236,22.1236,0,0,1,7.8922-5.2454,26.8252,26.8252,0,0,1,17.279-.1809,40.0811,40.0811,0,0,1,7.2834,3.3226,56.484,56.484,0,0,1,6.013,4.043c1.7994,1.409,3.3012,2.6138,4.4913,3.624q.2378.2021.4757.4035h4.8147q-.038-3.2556-.0842-6.5066C356.1791,68.9114,324.9888,41.8119,321.1665,41.8445Z" fill="#131417" opacity="0.75"/><path d="M481.3027,86.9759q1.032-3.2605,2.0312-6.5183C471.0061,95.7,458.046,110.9908,444.7927,126.2523q-15.39-2.9966-30.82-5.9943c-6.7494-13.27-13.7422-26.5536-20.8432-39.8q-1.0659,3.4239-2.15,6.8514c.4516,32.6413-.1154,65.4559-1.7014,97.6614H416.849q1.3232-3.2168,2.637-6.4419-.2827-13.1922-.911-26.4924,1.6393-2.0982,3.2758-4.1982c8.2416,12.4373,16.1681,24.8291,23.6281,37.1325h33.3633q1.4549-3.2168,2.8882-6.4419c-11.6223-15.1556-24.1007-30.434-37.0824-45.7544C457.2407,117.5228,469.5655,102.23,481.3027,86.9759Z" fill="#131417" opacity="0.75"/><path d="M585.5472,71.99H546.6748c-12.2923-11.6382-24.8563-23.2386-37.5165-34.7656q-1.8309,3.2223-3.7137,6.4516c13.882,19.3467,27.2226,38.8813,39.5083,58.4353q.2625,19.8489-.9811,39.6737h28.124q2.4876-3.2559,4.936-6.5145-1.276-17.1662-3.854-34.3751Q579.8492,86.4246,585.5472,71.99Z" fill="#131417" opacity="0.75"/><path d="M63.06,113.9251a478.1363,478.1363,0,0,1,5.3865-76.7H40.8014A431.1249,431.1249,0,0,0,35.58,135.2709h69.3465q-.4884-10.6619-.5789-21.3458Zm-.3165-48.2158a1.6457,1.6457,0,0,1-1.6307,1.4441,1.3222,1.3222,0,0,1-1.3693-1.4441q.0954-1.0252.1942-2.0493a1.66,1.66,0,0,1,1.6406-1.4431A1.3116,1.3116,0,0,1,62.9352,63.66Q62.837,64.6842,62.7431,65.7093Zm.6575-6.6609a1.6717,1.6717,0,0,1-1.6476,1.4421,1.2978,1.2978,0,0,1-1.3449-1.4421q.9025-8.4236,2.11-16.8072H50.1218a1.22,1.22,0,0,1-1.2634-1.4341,1.7689,1.7689,0,0,1,1.7065-1.4336H64.4215a1.2286,1.2286,0,0,1,1.27,1.4336Q64.3684,49.9013,63.4006,59.0484Z" fill="#fff"/><path d="M205.329,80.4576c-.5264,20.285-.4913,40.6583.105,60.9316.192,6.4278-.8389,11.0911-3.1128,13.875-2.2345,2.7344-5.8329,4.0609-11.03,4.06-5.3047,0-9.0619-1.3732-11.47-4.2068-2.4856-2.9139-3.91-7.5327-4.1435-13.7284-.76-20.2733-.8042-40.6466-.1338-60.9316H147.3862c-.8247,20.7522-.7493,41.5968.2257,62.3321.5819,12.2743,5.1127,21.7282,13.0126,28.1273,7.8564,6.3556,18.6284,9.568,32.011,9.5678,13.79-.0007,24.1627-3.2688,31.0222-9.7477,6.8826-6.5065,10.2128-15.9188,9.9364-28.01-.47-20.7148-.5067-41.5383-.1076-62.27Zm-32.5242,28.7086a1.5131,1.5131,0,0,1-3.0237,0q0-1.03.0021-2.0594a1.5131,1.5131,0,0,1,3.0237,0Q172.8045,108.1361,172.8048,109.1662Zm.025-6.6972a1.495,1.495,0,0,1-1.5214,1.4509,1.47,1.47,0,0,1-1.5017-1.4509q.0665-8.4753.3052-16.9423h-10.34a1.4253,1.4253,0,0,1-1.4629-1.4486,1.5381,1.5381,0,0,1,1.5558-1.4486H171.706a1.4269,1.4269,0,0,1,1.464,1.4486Q172.9006,93.2659,172.83,102.469Zm58.1143,6.6972a1.5131,1.5131,0,0,1-3.0237,0q0-1.03.0014-2.0594a1.513,1.513,0,0,1,3.0235,0Q230.944,108.1361,230.9441,109.1662Zm.0147-6.6972a1.5129,1.5129,0,0,1-3.0232,0q.04-8.4753.1826-16.9423h-10.34a1.4448,1.4448,0,0,1-1.48-1.4486,1.5166,1.5166,0,0,1,1.538-1.4486h11.8408a1.4479,1.4479,0,0,1,1.4819,1.4486Q231,93.2659,230.9588,102.469Z" fill="#fff"/><path d="M308.1016,62.9789a22.0614,22.0614,0,0,1,7.8732-5.2375,26.7332,26.7332,0,0,1,17.2336-.1808,40.0862,40.0862,0,0,1,7.2689,3.3175,56.8249,56.8249,0,0,1,6.0055,4.0375c1.7976,1.4063,3.3,2.61,4.4887,3.6194q.2378.2012.4757.4029h4.8048q-.1773-12.5872-.4658-25.097-.4514-.2217-.9021-.4435c-1.67-.8185-3.857-1.7877-6.4941-2.8851a67.8131,67.8131,0,0,0-7.5068-2.6593,73.8344,73.8344,0,0,0-9.0963-1.81A79.5474,79.5474,0,0,0,321.14,35.397c-14.9274.0017-27.0119,4.624-36.0827,13.8039C276.03,58.35,271.2267,70.79,271.1,86.2052c-.1333,15.98,4.4806,28.6163,13.527,37.5029,9.0621,8.9058,21.3606,13.411,36.5788,13.4117a71.0561,71.0561,0,0,0,11.453-.7257,86.0584,86.0584,0,0,0,8.8886-2.0808,61.4656,61.4656,0,0,0,7.6058-2.7293q3.6036-1.5643,6.3465-2.7833l.9682-.429q.0846-12.4866.06-24.99h-4.5722q-.2378.2038-.4762.4075-1.8487,1.585-4.3565,3.6138a49.1,49.1,0,0,1-5.6934,3.9086,36.5022,36.5022,0,0,1-7.1909,3.3191,27.3964,27.3964,0,0,1-17.7531-.0375,22.0559,22.0559,0,0,1-8.0119-4.8175,25.3633,25.3633,0,0,1-6.0619-9.1769,38.0388,38.0388,0,0,1-2.3212-14.3274,39.603,39.603,0,0,1,2.3-14.054A25.5657,25.5657,0,0,1,308.1016,62.9789Zm45.81-.1567a1.4457,1.4457,0,0,1-1.4776,1.4433,1.4976,1.4976,0,0,1-1.5194-1.4433q-.0143-1.0247-.03-2.048a1.4433,1.4433,0,0,1,1.4745-1.4421,1.4994,1.4994,0,0,1,1.52,1.4421Q353.8962,61.798,353.9119,62.8222ZM338.5173,40.9009a1.47,1.47,0,0,1,1.8259-.971,65.7448,65.7448,0,0,1,7.2,2.5562c2.0131.8369,3.7629,1.6,5.2,2.2706a1.4666,1.4666,0,0,1,.8625,1.2909q.1062,5.0515.196,10.1184a1.4389,1.4389,0,0,1-1.47,1.4409,1.498,1.498,0,0,1-1.5183-1.4409q-.0753-4.6132-.1636-9.2144c-1.224-.5553-2.6466-1.1693-4.2394-1.8317a62.4212,62.4212,0,0,0-6.8632-2.438A1.4508,1.4508,0,0,1,338.5173,40.9009Z" fill="#fff"/><path d="M447.0577,126.2523C459.561,110.9908,471.76,95.7,483.3339,80.4576H450.3621c-9.2734,12.9319-18.9206,25.9-28.7594,38.8553q.1774-19.4323-.3161-38.8553H393.1291c.6134,32.7239.1712,65.678-1.3266,98.0709H419.486q1.2633-20.1312,1.7893-40.4948c.2778,0,.5555.0015.833.0018,9.1142,13.5566,17.8872,27.0729,26.1236,40.493H481.73C471.0636,161.223,459.3613,143.7576,447.0577,126.2523ZM462.9323,82.63H475.77a1.5819,1.5819,0,0,1,1.3805.8083,1.39,1.39,0,0,1-.1057,1.5229q-1.0614,1.3833-2.1292,2.767a1.4872,1.4872,0,0,1-1.1815.5661,1.5775,1.5775,0,0,1-.9272-.3,1.4265,1.4265,0,0,1-.3361-2.0321c.1116-.1448.2234-.29.3351-.4351h-9.784a1.5349,1.5349,0,0,1-1.5512-1.4486A1.4242,1.4242,0,0,1,462.9323,82.63Zm-43.5507,26.5367a1.5131,1.5131,0,0,1-3.0237,0q.0006-1.03-.0014-2.0594a1.5131,1.5131,0,0,1,3.0236,0Q419.3813,108.1361,419.3816,109.1662Zm-.0185-6.6972a1.4743,1.4743,0,0,1-1.5045,1.4509,1.4925,1.4925,0,0,1-1.5189-1.4509q-.0465-8.4753-.2151-16.9423H403.5221a1.5134,1.5134,0,0,1-1.5339-1.4486,1.4451,1.4451,0,0,1,1.48-1.4486h14.1025a1.518,1.518,0,0,1,1.54,1.4486Q419.3106,93.2659,419.3631,102.469Z" fill="#fff"/><path d="M576.1353,37.2248q-6.1011,15.9021-13.6174,31.9628Q552.0348,53.14,540.7533,37.2248h-31.595c14.0956,19.3033,27.6673,38.8123,40.2,58.36q.52,19.8429-.4957,39.6861h28.1691q1.1729-20.4243.5179-40.9016a527.6039,527.6039,0,0,0,29.2952-57.1445ZM546.3666,51.3235a1.4161,1.4161,0,0,1-.7.18,1.7106,1.7106,0,0,1-1.39-.7421q-2.9331-4.2658-5.9155-8.5206h-10.78a1.697,1.697,0,0,1-1.6594-1.4341,1.26,1.26,0,0,1,1.3018-1.4336h11.6352a1.7439,1.7439,0,0,1,1.3954.7391q3.2625,4.6208,6.4687,9.256A1.3243,1.3243,0,0,1,546.3666,51.3235Zm4.437,6.6335a1.4212,1.4212,0,0,1-.7.1781,1.6939,1.6939,0,0,1-1.3882-.7481q-.714-1.0624-1.431-2.1249a1.3335,1.3335,0,0,1,.379-1.9553,1.63,1.63,0,0,1,2.0887.5695q.7209,1.0617,1.4388,2.1241A1.3314,1.3314,0,0,1,550.8036,57.957Zm43.8422-.014q-.6324,1.2806-1.2748,2.5619a1.3257,1.3257,0,0,1-1.21.7071,1.6554,1.6554,0,0,1-.7846-.2018,1.5335,1.5335,0,0,1-.7506-1.9762q.6386-1.2811,1.2678-2.561a1.419,1.419,0,0,1,1.9845-.5047A1.54,1.54,0,0,1,594.6458,57.943Zm2.2277-4.524a1.2875,1.2875,0,0,1-1.1929.7071,1.6773,1.6773,0,0,1-.7842-.2007,1.5534,1.5534,0,0,1-.7881-1.9718q2.3211-4.8636,4.4989-9.7124h-9.0541a1.7781,1.7781,0,0,1-1.7106-1.4341,1.2079,1.2079,0,0,1,1.2492-1.4336h11.6354a1.8135,1.8135,0,0,1,1.41.723,1.4371,1.4371,0,0,1,.2312,1.4405Q599.7315,47.4668,596.8735,53.419Z" fill="#fff"/><path d="M42.1634,131.6492a3.1358,3.1358,0,0,1-3.1578-2.8983q-.9615-21.3075.1555-42.6413c-.0137,0,.3689-6.3787,10.2805-6.3777C60.1428,79.73,59.7971,86.1091,59.81,86.11q-.6914,14.257-.5218,28.541a3.0152,3.0152,0,0,0,3.0663,2.9013H97.5883a3.032,3.032,0,0,1,3.0742,2.9008q.0841,4.15.2289,8.2982a2.8312,2.8312,0,0,1-2.9085,2.8983Z" fill="#e8e8e8"/><path d="M192.3741,176.9016c-12.47-.0017-22.3886-2.9051-29.4735-8.6585-7.0047-5.6964-11.0078-14.2481-11.5269-25.4531q-.3027-6.58-.4867-13.1728c-.0081.0009-.16-6.3832,9.7823-6.3839,11.1584.0014,10.8677,6.3837,10.8749,6.3839q.144,5.8905.37,11.7718c.2708,7.0148,2.0136,12.37,5.06,15.9309,3.1759,3.7206,8.0654,5.6061,14.5117,5.6069,6.2812,0,10.9144-1.8018,13.8187-5.36,2.8517-3.4946,4.1025-8.7828,3.8921-16.1774q-.1672-5.8811-.2733-11.7718c-.0046,0-.7543-6.2879,10.3234-6.2881,10.2529,0,10.3287,6.2886,10.3338,6.2881q.0957,6.56.251,13.11c.2627,11.0513-2.6944,19.582-8.8435,25.3864C214.7986,173.9523,205.2222,176.9,192.3741,176.9016Z" fill="#e8e8e8"/><path d="M274.8715,86.2052c-.1162,15.0037,4.1274,26.7861,12.4554,34.9749,8.3144,8.1785,19.7092,12.3186,33.8846,12.3192a67.43,67.43,0,0,0,10.79-.6686,82.7369,82.7369,0,0,0,8.7761-2.0714,57.1281,57.1281,0,0,0,6.8427-2.4769q1.7652-.7666,3.3253-1.45a2.9039,2.9039,0,0,0,1.7715-2.6345q.03-6.32.0356-12.6432a1.9279,1.9279,0,0,0-3.1582-1.4075c-.0112.01-.0249.02-.0363.0293a52.75,52.75,0,0,1-6.104,4.1957,40.2674,40.2674,0,0,1-7.9215,3.6635,30.0991,30.0991,0,0,1-9.9913,1.6793,32.4488,32.4488,0,0,1-10.3031-1.6991,25.8527,25.8527,0,0,1-9.3895-5.6313,28.949,28.949,0,0,1-6.9566-10.4635,41.3913,41.3913,0,0,1-2.5731-15.65c0-.0007.5912-6.5393-10.3986-6.539C274.9278,79.7309,274.8679,86.2043,274.8715,86.2052Z" fill="#e8e8e8"/><path d="M449.9005,173.99c-8.01-12.9372-16.5055-25.9581-25.3134-39.0121-1.7249-1.2961-2.77-1.2646-3.36-1.0829-3.3254,1.0289-3.8819,10.4787-3.894,10.477q-.4334,14.2544-1.2182,28.4178a2.3457,2.3457,0,0,1-2.3479,2.1534H397.9018a2.0772,2.0772,0,0,1-2.13-2.1534q.9518-21.4707,1.2585-43.1728c.044-2.9964,4.728-7.7074,10.392-9.1395a17.3667,17.3667,0,0,1,6.55-.22c4.4521.76,4.8479,2.81,7.6348,3.0218,4.7128.3607,5.8075-5.32,12.499-7.2019,4.4582-1.2529,10.6827-.6143,11.91,2.4144,1.25,3.087-3.2544,7.3075-3.6293,7.65,10.6927,15.1963,20.9458,30.3628,30.4757,45.421a2.313,2.313,0,0,1-2.1239,3.3806H451.6772A2.0648,2.0648,0,0,1,449.9005,173.99Z" fill="#e8e8e8"/><path d="M552.8994,129.4755q.7062-17.4273.2081-34.8809-4.6114-7.1683-9.4059-14.3264c-4.0606-4.9144-6.1119-10.2822-4.2794-12.91,2.3743-3.4054,11.6312-2.6073,17.1724,1.3321,2.6755,1.903,3.9561,4.1682,6.204,4.046,2.1607-.1169,2.619-2.2959,4.8837-4.2031,4.336-3.6561,13.0308-4.2809,15.9513-.7106,2.767,3.3737.2892,10.58-5.4792,15.4226-1.501,3.536-2.8324,6.59-4.4135,10.13q.6081,18.0441-.1865,36.1a2.3471,2.3471,0,0,1-2.364,2.1737H555.07A2.1108,2.1108,0,0,1,552.8994,129.4755Z" fill="#e8e8e8"/><path d="M20.35,217.884A261.6119,261.6119,0,0,1,4.9963,164.5372l-1.1444-6.8731-1.0365-6.8949L1.2422,136.9077C.8859,132.2709.6543,127.6239.3558,122.98L0,109.025.3609,95.07l.4241-6.966c.1438-2.3214.2682-4.6441.47-6.9607L2.8263,67.282c.349-2.2988.6682-4.6,1.0419-6.894l1.1425-6.8731A262.5934,262.5934,0,0,1,20.35.166l.5518.16A390.3105,390.3105,0,0,0,5.7413,109.025,390.417,390.417,0,0,0,20.9018,217.724Z" fill="url(#Dégradé_sans_nom_14)"/><path d="M136.7026,218.05a642.9826,642.9826,0,0,1,0-218.05l2.83.4923a640.0815,640.0815,0,0,0,0,217.0657Z" fill="url(#Dégradé_sans_nom_14-2)"/><path d="M254.1752,217.8876a1913.7087,1913.7087,0,0,1,0-217.7245l2.8676.1662a1910.8173,1910.8173,0,0,0,0,217.3914Z" fill="url(#Dégradé_sans_nom_14-3)"/><path d="M374.5347,217.8876l-2.8677-.1669a1910.6323,1910.6323,0,0,0,0-217.3914l2.8677-.1662A1913.57,1913.57,0,0,1,374.5347,217.8876Z" fill="url(#Dégradé_sans_nom_14-4)"/><path d="M492.0076,218.05l-2.8305-.4923a640.061,640.061,0,0,0,0-217.0657L492.0076,0A642.9622,642.9622,0,0,1,492.0076,218.05Z" fill="url(#Dégradé_sans_nom_14-5)"/><path d="M608.36.166a261.6237,261.6237,0,0,1,15.3537,53.3469l1.1443,6.8731,1.0365,6.8949,1.5732,13.8614c.3563,4.6368.5878,9.2839.8864,13.9274l.3558,13.9553L628.349,122.98l-.4242,6.966c-.1437,2.3214-.2681,4.6441-.47,6.9607l-1.5708,13.8612c-.349,2.2988-.6682,4.6-1.0419,6.894l-1.1425,6.8731A262.6,262.6,0,0,1,608.36,217.884l-.5517-.16a390.3189,390.3189,0,0,0,15.16-108.699A390.4272,390.4272,0,0,0,607.8083.3261Z" fill="url(#Dégradé_sans_nom_14-6)"/></g></g></svg>